<mxfile host="app.diagrams.net" modified="2022-11-30T09:08:18.448Z" agent="5.0 (Windows NT 10.0; Win64; x64) AppleWebKit/537.36 (KHTML, like Gecko) Chrome/107.0.0.0 Safari/537.36" etag="tM9GoISsrlka9B-jKN7u" version="20.5.3" type="github">
  <diagram id="ZfkzUUZ4_1M0ZpWH6gc-" name="线程模型">
    <mxGraphModel dx="1278" dy="600" grid="1" gridSize="10" guides="1" tooltips="1" connect="1" arrows="1" fold="1" page="1" pageScale="1" pageWidth="827" pageHeight="1169" math="0" shadow="0">
      <root>
        <mxCell id="0" />
        <mxCell id="1" parent="0" />
        <mxCell id="RP2ucUj9tSORiQu2KIXO-1" value="MainReactor" style="rounded=1;whiteSpace=wrap;html=1;" vertex="1" parent="1">
          <mxGeometry x="320" y="160" width="80" height="40" as="geometry" />
        </mxCell>
        <mxCell id="RP2ucUj9tSORiQu2KIXO-2" value="SlaveReactor" style="rounded=1;whiteSpace=wrap;html=1;" vertex="1" parent="1">
          <mxGeometry x="320" y="270" width="80" height="40" as="geometry" />
        </mxCell>
        <mxCell id="RP2ucUj9tSORiQu2KIXO-5" value="SlaveReactor" style="rounded=1;whiteSpace=wrap;html=1;" vertex="1" parent="1">
          <mxGeometry x="320" y="330" width="80" height="40" as="geometry" />
        </mxCell>
        <mxCell id="RP2ucUj9tSORiQu2KIXO-7" value="" style="shape=flexArrow;endArrow=classic;html=1;rounded=0;entryX=0;entryY=0.5;entryDx=0;entryDy=0;" edge="1" parent="1" target="RP2ucUj9tSORiQu2KIXO-1">
          <mxGeometry width="50" height="50" relative="1" as="geometry">
            <mxPoint x="210" y="179.5" as="sourcePoint" />
            <mxPoint x="300" y="179.5" as="targetPoint" />
          </mxGeometry>
        </mxCell>
        <mxCell id="RP2ucUj9tSORiQu2KIXO-8" value="Accept" style="text;html=1;strokeColor=none;fillColor=none;align=center;verticalAlign=middle;whiteSpace=wrap;rounded=0;" vertex="1" parent="1">
          <mxGeometry x="210" y="140" width="60" height="30" as="geometry" />
        </mxCell>
        <mxCell id="RP2ucUj9tSORiQu2KIXO-19" value="SocketChannel" style="rounded=0;whiteSpace=wrap;html=1;" vertex="1" parent="1">
          <mxGeometry x="120" y="240" width="120" height="40" as="geometry" />
        </mxCell>
        <mxCell id="RP2ucUj9tSORiQu2KIXO-20" value="SocketChannel" style="rounded=0;whiteSpace=wrap;html=1;" vertex="1" parent="1">
          <mxGeometry x="120" y="360" width="120" height="40" as="geometry" />
        </mxCell>
        <mxCell id="RP2ucUj9tSORiQu2KIXO-21" value="SocketChannel" style="rounded=0;whiteSpace=wrap;html=1;" vertex="1" parent="1">
          <mxGeometry x="120" y="320" width="120" height="40" as="geometry" />
        </mxCell>
        <mxCell id="RP2ucUj9tSORiQu2KIXO-23" value="SocketChannel" style="rounded=0;whiteSpace=wrap;html=1;" vertex="1" parent="1">
          <mxGeometry x="120" y="280" width="120" height="40" as="geometry" />
        </mxCell>
        <mxCell id="RP2ucUj9tSORiQu2KIXO-24" value="" style="endArrow=classic;startArrow=classic;html=1;rounded=0;exitX=1;exitY=0.5;exitDx=0;exitDy=0;entryX=0;entryY=0.5;entryDx=0;entryDy=0;" edge="1" parent="1" source="RP2ucUj9tSORiQu2KIXO-19" target="RP2ucUj9tSORiQu2KIXO-2">
          <mxGeometry width="50" height="50" relative="1" as="geometry">
            <mxPoint x="280" y="290" as="sourcePoint" />
            <mxPoint x="330" y="240" as="targetPoint" />
          </mxGeometry>
        </mxCell>
        <mxCell id="RP2ucUj9tSORiQu2KIXO-25" value="" style="endArrow=classic;startArrow=classic;html=1;rounded=0;exitX=1;exitY=0.5;exitDx=0;exitDy=0;entryX=0;entryY=0.5;entryDx=0;entryDy=0;" edge="1" parent="1" source="RP2ucUj9tSORiQu2KIXO-23" target="RP2ucUj9tSORiQu2KIXO-2">
          <mxGeometry width="50" height="50" relative="1" as="geometry">
            <mxPoint x="280" y="380" as="sourcePoint" />
            <mxPoint x="330" y="330" as="targetPoint" />
          </mxGeometry>
        </mxCell>
        <mxCell id="RP2ucUj9tSORiQu2KIXO-26" value="" style="endArrow=classic;startArrow=classic;html=1;rounded=0;exitX=1;exitY=0.5;exitDx=0;exitDy=0;entryX=0;entryY=0.5;entryDx=0;entryDy=0;" edge="1" parent="1" source="RP2ucUj9tSORiQu2KIXO-21" target="RP2ucUj9tSORiQu2KIXO-5">
          <mxGeometry width="50" height="50" relative="1" as="geometry">
            <mxPoint x="250" y="310" as="sourcePoint" />
            <mxPoint x="330" y="300" as="targetPoint" />
          </mxGeometry>
        </mxCell>
        <mxCell id="RP2ucUj9tSORiQu2KIXO-27" value="" style="endArrow=classic;startArrow=classic;html=1;rounded=0;exitX=1;exitY=0.5;exitDx=0;exitDy=0;entryX=0;entryY=0.5;entryDx=0;entryDy=0;" edge="1" parent="1" source="RP2ucUj9tSORiQu2KIXO-20" target="RP2ucUj9tSORiQu2KIXO-5">
          <mxGeometry width="50" height="50" relative="1" as="geometry">
            <mxPoint x="260" y="320" as="sourcePoint" />
            <mxPoint x="340" y="310" as="targetPoint" />
          </mxGeometry>
        </mxCell>
        <mxCell id="RP2ucUj9tSORiQu2KIXO-28" value="TCPAcceptor" style="rounded=0;whiteSpace=wrap;html=1;" vertex="1" parent="1">
          <mxGeometry x="530" y="340" width="120" height="20" as="geometry" />
        </mxCell>
        <mxCell id="RP2ucUj9tSORiQu2KIXO-29" value="" style="rounded=0;whiteSpace=wrap;html=1;" vertex="1" parent="1">
          <mxGeometry x="373" y="420" width="150" height="140" as="geometry" />
        </mxCell>
        <mxCell id="RP2ucUj9tSORiQu2KIXO-33" value="TCPSession (TCP会话)" style="text;html=1;strokeColor=none;fillColor=none;align=center;verticalAlign=middle;whiteSpace=wrap;rounded=0;" vertex="1" parent="1">
          <mxGeometry x="383" y="420" width="130" height="30" as="geometry" />
        </mxCell>
        <mxCell id="RP2ucUj9tSORiQu2KIXO-34" value="SelectionKey" style="rounded=0;whiteSpace=wrap;html=1;" vertex="1" parent="1">
          <mxGeometry x="399.5" y="450" width="97" height="20" as="geometry" />
        </mxCell>
        <mxCell id="RP2ucUj9tSORiQu2KIXO-35" value="SocketChannel" style="rounded=0;whiteSpace=wrap;html=1;" vertex="1" parent="1">
          <mxGeometry x="399.5" y="470" width="97" height="20" as="geometry" />
        </mxCell>
        <mxCell id="RP2ucUj9tSORiQu2KIXO-36" value="RemoteIP" style="rounded=0;whiteSpace=wrap;html=1;" vertex="1" parent="1">
          <mxGeometry x="399.5" y="490" width="97" height="20" as="geometry" />
        </mxCell>
        <mxCell id="RP2ucUj9tSORiQu2KIXO-37" value="Write Buffer" style="rounded=0;whiteSpace=wrap;html=1;" vertex="1" parent="1">
          <mxGeometry x="399.5" y="530" width="97" height="20" as="geometry" />
        </mxCell>
        <mxCell id="RP2ucUj9tSORiQu2KIXO-38" value="" style="endArrow=classic;html=1;rounded=0;exitX=1;exitY=0.5;exitDx=0;exitDy=0;entryX=0;entryY=0.5;entryDx=0;entryDy=0;" edge="1" parent="1" source="RP2ucUj9tSORiQu2KIXO-5" target="RP2ucUj9tSORiQu2KIXO-28">
          <mxGeometry width="50" height="50" relative="1" as="geometry">
            <mxPoint x="490" y="380" as="sourcePoint" />
            <mxPoint x="540" y="330" as="targetPoint" />
          </mxGeometry>
        </mxCell>
        <mxCell id="RP2ucUj9tSORiQu2KIXO-39" value="event" style="rounded=0;whiteSpace=wrap;html=1;" vertex="1" parent="1">
          <mxGeometry x="423" y="353" width="50" height="20" as="geometry" />
        </mxCell>
        <mxCell id="RP2ucUj9tSORiQu2KIXO-40" value="" style="endArrow=classic;html=1;rounded=0;exitX=0.5;exitY=1;exitDx=0;exitDy=0;entryX=0.5;entryY=0;entryDx=0;entryDy=0;dashed=1;" edge="1" parent="1" source="RP2ucUj9tSORiQu2KIXO-39" target="RP2ucUj9tSORiQu2KIXO-33">
          <mxGeometry width="50" height="50" relative="1" as="geometry">
            <mxPoint x="390" y="440" as="sourcePoint" />
            <mxPoint x="440" y="390" as="targetPoint" />
          </mxGeometry>
        </mxCell>
        <mxCell id="RP2ucUj9tSORiQu2KIXO-42" value="Read Buffer" style="rounded=0;whiteSpace=wrap;html=1;" vertex="1" parent="1">
          <mxGeometry x="399.5" y="510" width="97" height="20" as="geometry" />
        </mxCell>
        <mxCell id="RP2ucUj9tSORiQu2KIXO-43" value="" style="endArrow=classic;html=1;rounded=0;dashed=1;exitX=0.25;exitY=1;exitDx=0;exitDy=0;entryX=1;entryY=0.5;entryDx=0;entryDy=0;" edge="1" parent="1" source="RP2ucUj9tSORiQu2KIXO-28" target="RP2ucUj9tSORiQu2KIXO-29">
          <mxGeometry width="50" height="50" relative="1" as="geometry">
            <mxPoint x="580" y="470" as="sourcePoint" />
            <mxPoint x="590" y="480" as="targetPoint" />
            <Array as="points">
              <mxPoint x="560" y="490" />
            </Array>
          </mxGeometry>
        </mxCell>
        <mxCell id="RP2ucUj9tSORiQu2KIXO-45" value="&lt;div style=&quot;text-align: left;&quot;&gt;&lt;span style=&quot;background-color: initial;&quot;&gt;1. 从channel读取数据&lt;/span&gt;&lt;/div&gt;&lt;div style=&quot;text-align: left;&quot;&gt;&lt;span style=&quot;background-color: initial;&quot;&gt;&amp;nbsp; &amp;nbsp; 到 Read Buffer&lt;/span&gt;&lt;/div&gt;&lt;div style=&quot;text-align: left;&quot;&gt;&lt;span style=&quot;background-color: initial;&quot;&gt;2. Decode 二进制流为&amp;nbsp;&lt;/span&gt;&lt;/div&gt;&lt;div style=&quot;text-align: left;&quot;&gt;&lt;span style=&quot;background-color: initial;&quot;&gt;&amp;nbsp; &amp;nbsp; Request&lt;/span&gt;&lt;/div&gt;&lt;div style=&quot;text-align: left;&quot;&gt;&lt;span style=&quot;background-color: initial;&quot;&gt;3. 投递给业务线程池&lt;/span&gt;&lt;/div&gt;" style="rounded=0;whiteSpace=wrap;html=1;" vertex="1" parent="1">
          <mxGeometry x="525" y="250" width="130" height="80" as="geometry" />
        </mxCell>
        <mxCell id="RP2ucUj9tSORiQu2KIXO-46" value="" style="rounded=1;whiteSpace=wrap;html=1;" vertex="1" parent="1">
          <mxGeometry x="710" y="360" width="120" height="60" as="geometry" />
        </mxCell>
        <mxCell id="RP2ucUj9tSORiQu2KIXO-47" value="" style="rounded=0;whiteSpace=wrap;html=1;" vertex="1" parent="1">
          <mxGeometry x="890" y="300" width="120" height="70" as="geometry" />
        </mxCell>
        <mxCell id="RP2ucUj9tSORiQu2KIXO-48" value="WorkThread" style="text;html=1;strokeColor=none;fillColor=none;align=center;verticalAlign=middle;whiteSpace=wrap;rounded=0;" vertex="1" parent="1">
          <mxGeometry x="740" y="365" width="60" height="15" as="geometry" />
        </mxCell>
        <mxCell id="RP2ucUj9tSORiQu2KIXO-49" value="Request" style="rounded=1;whiteSpace=wrap;html=1;" vertex="1" parent="1">
          <mxGeometry x="730" y="390" width="80" height="20" as="geometry" />
        </mxCell>
        <mxCell id="RP2ucUj9tSORiQu2KIXO-50" value="ThreadPool&lt;br&gt;(业务线程池)" style="text;html=1;strokeColor=none;fillColor=none;align=center;verticalAlign=middle;whiteSpace=wrap;rounded=0;" vertex="1" parent="1">
          <mxGeometry x="920" y="303" width="70" height="30" as="geometry" />
        </mxCell>
        <mxCell id="RP2ucUj9tSORiQu2KIXO-51" value="queue" style="rounded=1;whiteSpace=wrap;html=1;" vertex="1" parent="1">
          <mxGeometry x="910" y="340" width="80" height="20" as="geometry" />
        </mxCell>
        <mxCell id="RP2ucUj9tSORiQu2KIXO-52" value="" style="endArrow=classic;html=1;rounded=0;dashed=1;exitX=1;exitY=0.5;exitDx=0;exitDy=0;entryX=0;entryY=0.5;entryDx=0;entryDy=0;" edge="1" parent="1" source="RP2ucUj9tSORiQu2KIXO-28" target="RP2ucUj9tSORiQu2KIXO-51">
          <mxGeometry width="50" height="50" relative="1" as="geometry">
            <mxPoint x="770" y="390" as="sourcePoint" />
            <mxPoint x="820" y="340" as="targetPoint" />
          </mxGeometry>
        </mxCell>
        <mxCell id="RP2ucUj9tSORiQu2KIXO-53" value="1.&amp;nbsp; 对排队超时的请求直接拒绝&lt;br&gt;2. 调用对应 skeleton 的处理，进行真正的业务处理&lt;br&gt;3. 返回Response" style="rounded=0;whiteSpace=wrap;html=1;align=left;" vertex="1" parent="1">
          <mxGeometry x="700" y="510" width="170" height="130" as="geometry" />
        </mxCell>
        <mxCell id="RP2ucUj9tSORiQu2KIXO-54" value="ServerProcessor" style="text;html=1;strokeColor=none;fillColor=none;align=center;verticalAlign=middle;whiteSpace=wrap;rounded=0;" vertex="1" parent="1">
          <mxGeometry x="755" y="510" width="60" height="30" as="geometry" />
        </mxCell>
        <mxCell id="RP2ucUj9tSORiQu2KIXO-55" value="" style="endArrow=classic;html=1;rounded=0;dashed=1;exitX=0.5;exitY=1;exitDx=0;exitDy=0;entryX=0.25;entryY=0;entryDx=0;entryDy=0;" edge="1" parent="1" source="RP2ucUj9tSORiQu2KIXO-46" target="RP2ucUj9tSORiQu2KIXO-54">
          <mxGeometry width="50" height="50" relative="1" as="geometry">
            <mxPoint x="890" y="490" as="sourcePoint" />
            <mxPoint x="940" y="440" as="targetPoint" />
          </mxGeometry>
        </mxCell>
      </root>
    </mxGraphModel>
  </diagram>
</mxfile>
